<?xml version="1.0" standalone="no"?><!DOCTYPE svg PUBLIC "-//W3C//DTD SVG 1.1//EN" "http://www.w3.org/Graphics/SVG/1.1/DTD/svg11.dtd"><svg t="1712024182073" class="icon" viewBox="0 0 3416 1024" version="1.1" xmlns="http://www.w3.org/2000/svg" p-id="9892" xmlns:xlink="http://www.w3.org/1999/xlink" width="667.1875" height="200"><path d="M734.019563 741.592625h8.644645a58.940759 58.940759 0 0 0 44.009099-18.585986 61.61274 61.61274 0 0 0 0-86.878678 58.940759 58.940759 0 0 0-43.969805-18.468105 51.081991 51.081991 0 0 0-22.790427 4.361616l-7.583711-67.34964h-141.182764l52.142925 417.536334a73.361598 73.361598 0 0 0 17.367877 36.189626 44.716389 44.716389 0 0 0 34.735753 14.263663h102.163982l23.890654-103.146327h-46.798962z m39.09737-716.641037a51.081991 51.081991 0 0 0-35.835981-14.106488h-314.900826a50.374702 50.374702 0 0 0-36.346802 14.106488 47.624133 47.624133 0 0 0-14.656602 35.835981v912.088592a47.506251 47.506251 0 0 0 14.656602 35.835982 50.374702 50.374702 0 0 0 36.346802 14.106488h127.036981l21.729493-103.146328h-60.787569V526.537443h226.921921a49.038711 49.038711 0 0 0 35.835981-15.206715 50.25682 50.25682 0 0 0 15.206716-36.896915V60.787569a46.838256 46.838256 0 0 0-15.206716-35.835981z m-123.775593 398.518116h-138.982309V320.323376h138.982309z m0-206.331949h-138.982309V113.952133h138.982309z m-330.068248-193.797215a49.903176 49.903176 0 0 0-35.835981-14.656602H51.09264a50.060351 50.060351 0 0 0-51.081991 51.081991v964.152929h134.659987V111.830266h65.149185v272.542068a70.72891 70.72891 0 0 0-40.511948 24.990881 69.785858 69.785858 0 0 0-15.953299 45.580854 72.143489 72.143489 0 0 0 15.953299 46.170261A69.628683 69.628683 0 0 0 199.819821 526.537443v268.180452H147.676897l28.25227 103.185621h107.46865a49.156593 49.156593 0 0 0 35.835981-15.206715 50.335408 50.335408 0 0 0 15.206716-36.936209V59.726635a48.488597 48.488597 0 0 0-15.206716-36.386095zM1618.916819 105.307489V1.060934h-144.365565V105.307489H1247.59004v103.146327h226.961214v143.5011a242.953807 242.953807 0 0 1 18.153754 16.424825 212.815432 212.815432 0 0 1 64.638365 156.075129 212.697551 212.697551 0 0 1-64.638365 156.075129 242.953807 242.953807 0 0 1-18.153754 16.424824v221.656547h-90.140067l28.252271 104.207261H1567.834828a51.867868 51.867868 0 0 0 51.081991-51.081991V208.453816h53.203858V105.307489zM1474.551254 412.58531v223.974883a170.063735 170.063735 0 0 0 39.568896-111.908854A170.181617 170.181617 0 0 0 1474.551254 412.58531zM1218.11966 337.651959V95.562617a50.060351 50.060351 0 0 0-51.08199-51.081991h-245.193556a51.081991 51.081991 0 0 0-36.896915 14.656602 48.488597 48.488597 0 0 0-15.206716 36.386095V958.769673a51.867868 51.867868 0 0 0 52.103631 52.103631h245.390025a48.527891 48.527891 0 0 0 36.386095-15.167422A51.317754 51.317754 0 0 0 1218.11966 958.769673v-247.551186a231.047774 231.047774 0 0 1-37.722085-30.767076 212.501082 212.501082 0 0 1-64.441896-155.996541 212.618963 212.618963 0 0 1 64.599071-156.075129 230.772717 230.772717 0 0 1 37.56491-30.727782z m-134.620692 117.29211a71.907725 71.907725 0 0 0-44.362745 24.440768 69.90374 69.90374 0 0 0-17.485758 47.152606 73.243716 73.243716 0 0 0 17.367877 48.842242 70.72891 70.72891 0 0 0 44.51992 24.990882V907.687682h-79.137792V147.666247h79.255673z m127.469214-55.993721A171.006788 171.006788 0 0 0 1159.178902 524.45487a170.888906 170.888906 0 0 0 51.946455 125.504522c2.35763 2.35763 4.754555 4.636673 7.151479 6.797834V392.152514c-2.396924 2.161161-4.793848 4.440204-7.151479 6.797834zM2235.162097 762.300478a70.100209 70.100209 0 0 0-50.413996-20.707853 71.318318 71.318318 0 0 0-51.671398 20.707853 68.567749 68.567749 0 0 0-21.179379 51.081991A72.300664 72.300664 0 0 0 2184.748101 886.036777a69.039275 69.039275 0 0 0 50.492583-21.179379 70.21809 70.21809 0 0 0 21.061498-51.474929 68.528455 68.528455 0 0 0-21.140085-51.081991z m253.523849-185.66339v-92.379815H2344.281088v92.301228h-268.219746V679.783416h268.219746v238.906541h-78.19474l28.25227 102.949859h144.404859a48.213541 48.213541 0 0 0 35.364455-14.656602 49.43165 49.43165 0 0 0 14.656602-36.386095V679.783416h53.203858v-103.224915z m-102.163981-229.122375V188.924778h152.027863V85.778451h-151.949276V2.161161h-144.404858v83.61729h-162.872963v103.146327h162.872963v158.511347h-173.718063v103.185621h478.834723V347.436125z m-388.694656 292.110399V273.603001h54.264792V170.456674h-54.186205V11.788152h-133.599052v158.668522H1835.032934V49.942469h-87.978906V318.280096h-15.167422l10.8451 87.978906h52.10363a38.115024 38.115024 0 0 0 28.802384-11.788152 40.904886 40.904886 0 0 0 11.395214-29.313204v-91.554645h23.890654v365.943524H1740.72772V742.653558h118.353043v281.226006h138.982309V742.653558h57.52618v-103.107033zM3380.105979 919.672303v-174.81829h-144.404858v229.122376a47.152607 47.152607 0 0 0 15.206715 35.364455 49.903176 49.903176 0 0 0 35.835982 14.656602h107.507943l21.690199-104.246555z m-220.399143-152.538683a76.308635 76.308635 0 0 0-55.482901-22.279607 76.072872 76.072872 0 0 0-76.033578 76.033579 74.658294 74.658294 0 0 0 22.279606 55.011374 73.28301 73.28301 0 0 0 53.753972 22.083138 76.465811 76.465811 0 0 0 55.365019-22.279607 73.597361 73.597361 0 0 0 22.790427-55.011374 72.379252 72.379252 0 0 0-22.672545-53.557503z m-175.918518 159.06146v-181.341067H2839.38346v231.283537a44.441332 44.441332 0 0 0 15.206716 33.67482 52.378687 52.378687 0 0 0 36.936208 14.106488h266.019291l27.152043-97.723778zM3402.857112 129.198143V26.051815h-322.20948V0h-144.640622v26.051815h-322.484537v103.146328h322.484537v33.67482H2679.850473a48.488597 48.488597 0 0 0-36.386095 15.206716 50.060351 50.060351 0 0 0-14.695895 35.835981v294.232267a51.357048 51.357048 0 0 0 14.656602 36.936208 48.488597 48.488597 0 0 0 36.386095 15.206716h256.235124v58.626408h-322.523831v103.146328h603.749837l41.258531-82.517062v82.517062H3402.857112v-149.827409h-144.326271v46.681081H3080.647632v-58.626408h255.174191a51.907161 51.907161 0 0 0 52.10363-52.142924V213.91566a49.038711 49.038711 0 0 0-15.206715-35.835981 50.25682 50.25682 0 0 0-36.896915-15.206716H3080.647632v-33.67482z m-466.850102 327.907087h-163.933896V412.58531h163.933896z m0-147.666247h-163.933896v-43.223223h163.933896z m307.317115 147.666247H3080.647632V412.58531h162.676493z m0-191.08594v43.223223H3080.647632v-43.223223zM2636.352194 744.854013v174.81829h-35.835982l21.690199 104.246555h107.507944a49.903176 49.903176 0 0 0 35.835981-14.656602 47.152607 47.152607 0 0 0 15.206716-35.364455v-229.043788z" fill="#3DB657" p-id="9893"></path><path d="M1474.551254 412.58531c-3.929384-4.636673-7.858768-9.194758-12.416853-13.595668A177.529565 177.529565 0 0 0 1218.11966 392.152514c-2.396924 2.161161-4.793848 4.440204-7.151478 6.797834A171.006788 171.006788 0 0 0 1159.178902 524.45487a170.888906 170.888906 0 0 0 51.946455 125.504522c2.35763 2.35763 4.754555 4.636673 7.151479 6.797834a177.529565 177.529565 0 0 0 243.857565-6.797834c4.40091-4.40091 8.566057-8.919701 12.416853-13.595668a170.063735 170.063735 0 0 0 39.568896-111.908854A170.181617 170.181617 0 0 0 1474.551254 412.58531zM1430.306391 436.554552l-59.726635 72.575721 32.535299-3.182801a15.717536 15.717536 0 0 1 17.171407 14.145782v1.571753a15.717536 15.717536 0 0 1-14.185076 15.717536l-47.977777 4.636673c-0.550114 0.628701-1.139521 1.296697-1.728929 1.886104a27.505687 27.505687 0 0 1-37.56491 1.060934l-1.100228-1.060934a27.505687 27.505687 0 0 1 0-38.665137l1.100228-1.060934a26.169697 26.169697 0 0 1 18.232341-6.95501h2.514806L1405.865623 416.514694a15.717536 15.717536 0 0 1 27.820038 10.019929 15.717536 15.717536 0 0 1-3.37927 10.019929z" fill="#FFCE2D" p-id="9894"></path></svg>