<?xml version="1.0" standalone="no"?><!DOCTYPE svg PUBLIC "-//W3C//DTD SVG 1.1//EN" "http://www.w3.org/Graphics/SVG/1.1/DTD/svg11.dtd"><svg t="1712024158853" class="icon" viewBox="0 0 3233 1024" version="1.1" xmlns="http://www.w3.org/2000/svg" p-id="7768" xmlns:xlink="http://www.w3.org/1999/xlink" width="631.4453125" height="200"><path d="M594.890105 176.828632l-28.402526 202.105263h113.717895c0.269474-22.474105 3.610947-56.050526 9.970526-101.052632a1586.661053 1586.661053 0 0 1 9.970526-101.052631h-105.256421z m268.018527 669.480421c16.815158 0 28.025263-19.617684 33.522526-58.960842h96.848842c-15.737263 112.208842-65.589895 166.965895-149.396211 164.217263-140.341895 19.617684-197.632-131.934316-171.92421-454.76379h-122.017684L517.389474 728.387368c41.229474-13.958737 88.926316-33.684211 142.982737-58.906947l-17.785264 126.275368A264.084211 264.084211 0 0 0 619.789474 808.421053c-3.233684 2.856421-6.251789 4.311579-9.000421 4.311579 12.126316 33.630316 19.402105 81.381053 21.989052 143.090526H489.633684a349.291789 349.291789 0 0 0-6.197895-75.776c-45.702737 25.330526-99.328 47.696842-161.037473 67.368421L447.218526 58.906947h421.079579c56.050526 0 119.269053-9.808842 189.386106-29.426526l-17.785264 126.275368c-58.206316 14.120421-113.825684 21.072842-167.127579 21.072843l-28.402526 202.105263h185.290105l-16.599579 117.867789h-181.086315l-2.910316 21.072842c1.239579 30.881684-0.646737 64.673684-5.766737 101.052632-4.904421 154.408421 8.245895 230.184421 39.612632 227.435789zM206.416842 4.203789H370.795789l-17.246315 122.125474h63.218526l-16.545684 117.86779H337.003789L310.972632 429.433263c2.694737 0 9.970526-1.347368 21.557894-4.203789 14.874947-5.551158 28.025263-9.808842 39.774316-12.611369l-15.413895 109.460211c-23.713684 8.407579-44.463158 16.869053-62.517894 25.330526l-39.666527 282.031158c-12.557474 89.788632-69.416421 134.736842-170.469052 134.736842H0l15.413895-109.406316h25.222737c33.684211 0 51.415579-16.922947 53.463579-50.553263l28.995368-206.362947c-11.695158 2.856421-32.175158 8.461474-61.332211 16.869052-14.120421 0-24.090947 1.455158-30.073263 4.20379L51.738947 475.782737c28.402526-2.694737 58.475789-7.006316 90.21979-12.665263l30.72-218.920421H92.860632l16.545684-117.86779h79.979789L206.524632 4.203789zM1847.349895 762.071579L1927.814737 189.547789H1767.747368L1680.922947 808.421053h117.86779c30.450526 2.856421 46.618947-12.611368 48.613052-46.349474z m-354.519579 155.863579l118.945684-846.362947h509.466947L2024.178526 762.071579c-12.234105 106.711579-68.608 158.558316-169.229473 155.755789h-362.172632zM1309.049263 8.461474h176.774737l-16.491789 117.867789h101.052631l-16.545684 117.921684h-101.052632l-26.624 189.44 104.55579-25.222736-17.138527 122.071578c-11.641263 2.802526-29.264842 8.407579-52.870736 16.869053-23.336421 5.658947-40.96 11.264-52.924632 16.815158l-37.295158 265.269895c-10.293895 92.645053-62.895158 137.431579-157.911579 134.736842h-122.017684l15.36-109.460211h42.037895c30.504421 2.802526 46.672842-12.665263 48.666947-46.349473l28.995369-206.309053c-14.551579 2.802526-38.858105 7.006316-73.350737 12.665263a528.815158 528.815158 0 0 0-47.481263 8.407579l21.288421-151.605895c22.420211 0 52.277895-2.748632 89.626947-8.407579 14.336-2.802526 24.360421-4.203789 30.019368-4.203789l30.181053-214.716632h-109.460211l16.545685-117.921684h109.514105l16.545684-117.867789zM2694.090105 429.487158c-42.846316 44.894316-102.130526 87.04-177.744842 126.329263h332.638316c-40.259368-33.738105-76.422737-75.829895-108.597895-126.329263h-46.295579zM3123.846737 37.888a1184.606316 1184.606316 0 0 1-44.840421 109.514105h101.052631l-16.006736 113.664h-366.322527c-0.754526 5.658947-4.796632 14.012632-11.964631 25.222737a152.198737 152.198737 0 0 1-12.557474 29.480421h421.079579l-16.006737 113.717895h-231.585684c39.882105 56.158316 110.484211 102.507789 212.075789 138.940631l-15.413894 109.406316c-51.361684-14.012632-97.28-26.570105-137.808843-37.834105l-24.791578 176.774737c-11.533474 101.160421-70.332632 150.204632-176.559158 147.456h-143.144421l15.36-109.460211h63.164631c33.684211 0 53.086316-18.324211 58.206316-54.757052l17.785263-126.329263h-193.697684c-18.485895 171.277474-170.684632 275.078737-456.434526 311.511578l14.821052-105.202526c171.061895-39.343158 259.341474-108.005053 264.730948-206.309052H2327.174737l5.389474-37.888c-47.373474 16.869053-98.735158 32.336842-153.923369 46.295578l15.952842-113.717894c126.922105-44.786526 219.136-91.136 276.372211-138.886737H2218.307368l15.952843-113.717895h336.842105c11.210105-19.563789 20.695579-37.888 28.725895-54.703158H2284.058947l15.952842-113.717894h96.848843a944.181895 944.181895 0 0 1-14.012632-109.460211h164.163368c2.910316 39.343158 7.545263 75.829895 14.066527 109.514105h71.57221l3.557053-25.330526c4.311579-11.156211 7.221895-21.018947 8.353684-29.426526l13.042526-92.698948h193.697685l-10.671158 75.88379c-3.179789 22.474105-7.976421 46.295579-14.282106 71.57221h88.441264a1184.606316 1184.606316 0 0 0 44.840421-109.514105h164.217263z" fill="#FF3D8A" p-id="7769"></path></svg>