<?xml version="1.0" standalone="no"?><!DOCTYPE svg PUBLIC "-//W3C//DTD SVG 1.1//EN" "http://www.w3.org/Graphics/SVG/1.1/DTD/svg11.dtd"><svg t="1712060357247" class="icon" viewBox="0 0 4096 1024" version="1.1" xmlns="http://www.w3.org/2000/svg" p-id="4642" xmlns:xlink="http://www.w3.org/1999/xlink" width="800" height="200"><path d="M279.552 979.375158c-68.608 0-124.928-54.272-124.928-122.88V669.103158H94.208a33.414737 33.414737 0 0 1-33.792-33.792V633.263158c0-17.408 15.36-33.792 33.792-33.792h60.416V407.983158c0-68.608 56.32-122.88 124.928-122.88h466.944c33.792 0 63.488 13.312 87.04 35.84a124.065684 124.065684 0 0 1 35.84 87.04v191.488h62.464c18.432 0 33.792 16.384 33.792 33.792v2.048a33.414737 33.414737 0 0 1-33.792 33.792h-62.464v187.392c0 32.768-13.312 63.488-35.84 87.04-23.552 22.528-53.248 35.84-87.04 35.84H279.552zM800.768 407.983158c0-14.336-5.12-27.648-15.36-37.888a54.164211 54.164211 0 0 0-38.912-16.384H279.552c-16.384 0-28.672 6.144-39.936 16.384-10.24 10.24-15.36 23.552-15.36 37.888v191.488h576.512V407.983158z m-54.272 502.784a54.164211 54.164211 0 0 0 38.912-16.384c10.24-10.24 15.36-23.552 15.36-37.888V669.103158H224.256v187.392c0 14.336 5.12 27.648 15.36 37.888 11.264 10.24 23.552 16.384 39.936 16.384h466.944zM227.328 146.863158h647.168c18.432 0 32.768 15.36 32.768 33.792v2.048c0 18.432-14.336 33.792-32.768 33.792H173.056c-23.444211 0-39.450947-23.336421-31.959579-44.13979l40.151579-93.07621c7.168-16.384 26.624-25.6 44.032-17.408h1.024c17.408 7.168 25.6 26.624 18.432 45.056L227.328 146.863158z m338.944 369.664a32.741053 32.741053 0 0 1-1.401263 44.544l-3.718737 3.584c-5.389474 5.389474-12.314947 8.407579-20.156632 8.380631l-3.395368-0.188631c-10.24 0-17.408-5.12-23.552-11.264l-94.208-108.544a36.136421 36.136421 0 0 1-7.356632-20.695579l0.188632-3.880421c0-8.084211 3.125895-15.36 9.431579-21.153684l2.856421-2.398316c13.312-12.288 34.816-10.24 46.08 3.072l95.232 108.544z m0 296.96c4.392421 6.144 7.275789 13.042526 7.356632 20.695579l-0.188632 3.880421c0 8.084211-3.125895 15.36-9.431579 21.153684l-2.856421 2.398316c-13.312 12.288-33.792 10.24-46.08-3.072l-95.232-107.52a38.265263 38.265263 0 0 1-7.356632-21.018947l0.188632-3.557053c0-10.24 4.096-17.408 12.288-24.576 12.422737-10.509474 31.986526-10.320842 43.708632 1.401263l97.603368 110.214737z" fill="#222222" p-id="4643"></path><path d="M1786.88 73.135158c16.384 0 33.792 3.072 49.152 10.24 47.104 20.48 78.848 65.536 78.848 117.76v656.384c0 52.224-31.744 97.28-78.848 117.76-15.36 7.168-32.768 10.24-49.152 10.24H1283.072a117.625263 117.625263 0 0 1-49.152-10.24 126.760421 126.760421 0 0 1-67.584-68.608c-7.168-14.336-10.24-31.744-10.24-49.152V201.135158c0-17.408 3.072-34.816 10.24-49.152 13.312-32.768 36.864-55.296 67.584-68.608a117.625263 117.625263 0 0 1 49.152-10.24H1786.88z m0 68.608H1283.072a57.397895 57.397895 0 0 0-40.96 17.408c-11.264 12.288-15.36 25.6-15.36 41.984v295.936h12.8v68.608h-12.8v291.84c0 15.36 4.096 29.696 15.36 40.96 11.264 12.288 25.6 18.432 40.96 18.432H1786.88c16.384 0 30.72-6.144 41.984-18.432 10.24-11.264 15.36-25.6 15.36-40.96v-291.84h-11.829895v-68.608h11.829895V201.135158a62.517895 62.517895 0 0 0-15.36-41.984 57.990737 57.990737 0 0 0-41.984-17.408z" fill="#000000" p-id="4644"></path><path d="M3672.064 200.111158c0-17.408 4.096-33.792 10.24-49.152 21.504-46.08 66.56-77.824 117.76-77.824h215.04c17.408 0 32.768 15.36 32.768 33.792v1.024c0 19.456-15.36 33.792-32.768 33.792h-215.04c-17.408 0-30.72 7.168-40.96 18.432-11.264 12.288-17.408 25.6-17.408 41.984l-3.072 145.408h278.528c19.456 0 33.792 15.36 33.792 33.792v2.048a33.414737 33.414737 0 0 1-33.792 33.792h-33.792V940.463158c0 18.432-15.36 33.792-33.792 33.792h-1.024a33.414737 33.414737 0 0 1-33.792-33.792V417.199158h-178.176l-3.072 171.008c-3.072 117.76-5.12 234.496-7.168 353.28 0 17.408-16.384 32.768-33.792 32.768h-2.048c-19.456-1.024-33.792-16.384-32.768-34.816l14.336-739.328z m-76.8 153.6c19.456 0 33.792 15.36 33.792 33.792v1.024c0 19.456-14.336 33.792-33.792 33.792h-184.32v100.352h168.96c17.408 0 33.792 15.36 33.792 33.792v1.024c0 18.432-16.384 33.792-33.792 33.792h-168.96v258.048a137.162105 137.162105 0 0 1-10.24 50.176 128.296421 128.296421 0 0 1-67.584 67.584 131.691789 131.691789 0 0 1-43.008 10.24c-10.24 1.024-18.432-3.072-24.576-10.24-8.192-6.144-10.24-13.312-10.24-23.552v-1.024c0-18.432 13.312-32.768 31.744-33.792 14.336-1.024 26.624-7.168 36.864-17.408 11.264-12.288 17.408-25.6 17.408-41.984v-258.048h-169.984c-17.408 0-32.768-15.36-32.768-33.792v-1.024c0-18.432 15.36-33.792 32.768-33.792h169.984v-100.352h-185.344c-19.456 0-33.792-14.336-33.792-33.792v-1.024a33.414737 33.414737 0 0 1 33.792-33.792h39.936v-79.872c0-19.456 15.36-33.792 33.792-33.792h2.048c17.408 0 32.768 14.336 32.768 33.792v79.872h223.232v-79.872c0-19.456 15.36-33.792 33.792-33.792h1.024a33.414737 33.414737 0 0 1 33.792 33.792v79.872h38.912z m-15.36-223.232c17.408 0 33.792 16.384 33.792 33.792v2.048c0 18.432-16.384 33.792-33.792 33.792h-408.576c-17.408 0-32.768-15.36-32.768-33.792v-2.048c0-17.408 15.36-33.792 32.768-33.792h408.576z m-320.512 534.528c-7.168 98.304-25.6 190.464-60.416 277.504-8.192 17.408-27.648 25.6-45.056 18.432l-2.048-1.024a32.256 32.256 0 0 1-17.408-43.008c32.768-81.92 50.176-165.888 56.32-257.024 1.024-17.408 16.384-30.72 34.816-30.72h1.024c9.216 1.024 18.432 4.096 24.576 11.264 6.144 7.168 9.216 15.36 8.192 24.576z m348.16 256a32.282947 32.282947 0 0 1-26.624 38.912l-1.024 1.024c-19.456 3.072-36.864-8.192-39.936-27.648l-49.152-264.192a32.336842 32.336842 0 0 1 25.6-38.912c10.24-2.048 18.432-1.024 26.624 4.096 8.192 6.144 13.312 12.288 14.336 21.504l50.176 265.216zM2975.744 869.807158c18.432 0 33.792 15.36 33.792 33.792v1.024c0 18.432-15.36 33.792-33.792 33.792H2145.28a34.142316 34.142316 0 0 1-33.603368-30.369684l-0.188632-4.446316c0-18.432 15.36-33.792 33.792-33.792h292.864V104.879158c0-18.432 15.36-33.792 33.792-33.792h3.072c18.432 0 33.792 15.36 33.792 33.792v175.104h431.104c18.432 0 33.792 15.36 33.792 33.792v2.048c0 18.432-15.36 33.792-33.792 33.792H2508.8v520.192h466.944z" fill="#222222" p-id="4645"></path><path d="M1059.274105 493.972211C1203.280842 568.778105 1353.377684 606.315789 1509.052632 606.315789c155.162947 0 313.586526-37.268211 475.001263-111.481263a40.421053 40.421053 0 0 0-33.792-73.458526C1799.087158 490.900211 1652.089263 525.473684 1509.052632 525.473684c-142.551579 0-279.875368-34.330947-412.537264-103.235368a40.421053 40.421053 0 1 0-37.241263 71.733895zM3307.843368 76.314947l53.894737 80.842106a40.421053 40.421053 0 1 0 67.260632-44.840421l-53.894737-80.842106a40.421053 40.421053 0 1 0-67.260632 44.840421z" fill="#F97D25" p-id="4646"></path></svg>