<?xml version="1.0" standalone="no"?><!DOCTYPE svg PUBLIC "-//W3C//DTD SVG 1.1//EN" "http://www.w3.org/Graphics/SVG/1.1/DTD/svg11.dtd"><svg t="1712025708603" class="icon" viewBox="0 0 4311 1024" version="1.1" xmlns="http://www.w3.org/2000/svg" p-id="17601" xmlns:xlink="http://www.w3.org/1999/xlink" width="841.9921875" height="200"><path d="M737.118 189.602h61.602l15.63-111.778H602.38l9.378-65.752H349.615l-9.431 65.752H128.162l-15.63 111.778h60.578l27.163 111.777H89.465l-15.63 111.724h245.437l-10.455 76.261H70.764L55.08 601.088h238.107l-43.87 305.044h-38.589l56.428-268.45H100.083l-60.74 280.954H2.856l30.29 85.639h157.641l18.864-91.891 26.085 91.89h208.896l57.451-402.108h238.161l15.63-111.778H517.82l10.455-76.26h245.437l15.63-111.725h-110.7l58.53-112.801z m-261.12 112.747h-72.057l-26.139-111.723h156.672l-58.476 111.777z m189.063 617.257h36.54l-54.325 85.693H489.58l27.163-365.622h167.073l-18.755 279.929z m1060.11-631.808h-263.222l35.516-246.515h1202.176l-35.57 246.515h-263.168l17.785-125.36h-674.762l-18.755 125.36z m1996.961 154.57h335.28l4.203-28.24h143.09l-4.203 28.24h74.16l-9.379 64.728h-74.159l-4.204 27.163h-143.09l4.204-27.163h-335.28l-4.203 27.163h-143.09l4.203-27.163h-74.16l9.379-64.728h74.159l4.203-28.24h143.091l-4.204 28.24z m538.948 128.431l-9.378 68.985H3767.08l-104.448 101.323h17.786l-37.673 264.192h-148.21l30.289-216.172h-51.2l-13.582-68.986h46.996l85.693-80.41h-119.107l9.377-68.932h184.86l28.24-26.085h169.23l-27.217 26.085h423.073z m-1349.417-86.663h58.476l-10.456 74.16h-58.475l-15.63 109.675 60.524-14.659-11.48 82.513-60.577 14.66-36.541 255.891h-152.522l-18.755-68.985h46.996l21.935-154.57-66.83 15.683 11.48-82.459 66.83-15.737 19.833-142.012h-64.728l10.402-74.16h64.781l9.378-66.83h133.659l-8.3 66.83zM4087.7 808.96h139.965l-8.354 57.452H4055.31l-19.833 137.863h-234.98l-25.062-57.452h127.407l11.48-81.49h-232.933l8.353-57.397h232.934l3.125-21.935 92.969-48.074h-281.977l8.353-61.602h474.166l-9.431 65.752-122.18 66.83zM2066.648 487.262h615.208l-75.183 527.468h-237.137l17.785-121.155 40.745-286.181h-142.067l-40.69 286.18h142.012l-75.183 121.156h-320.674l75.237-527.468zM3319 860.16h89.788l10.456-74.16h-89.789l10.402-74.158h89.842l10.456-74.16h-89.843l10.456-72.057h102.4l10.402-74.159h-102.4l10.51-74.16h-129.564l-10.401 74.16h-99.22l38.642-74.16h-133.66l-61.709 114.85h-20.91l3.125 54.327h41.769l-59.5 418.816h433.421l38.643-74.16H3307.52L3319 860.16z m-139.965 70.98h-89.843l10.456-70.98h89.843l-10.456 70.98zM3199.946 786h-89.842l10.455-74.158h89.789L3199.946 786z m20.857-148.317h-89.842l10.455-72.058h89.843l-10.456 72.058z m-1836.14-150.367h615.155l-75.183 527.414h-236.059l17.785-121.155 40.745-286.181h-144.169l-40.744 286.18h144.168l-76.26 121.156h-320.674l75.237-527.468z" p-id="17602"></path><path d="M2673.502 437.086H1314.708l-80.519 567.242h-216.117l80.41-567.242h-68.93l-80.412 567.135H698.476l19.833-140.989h35.517L869.699 47.535h558.835l-54.326 112.802h-304.936l-21.936 152.522h3261.872l-33.415 61.602h-1566.72z" fill="#FF540E" p-id="17603"></path></svg>