<?xml version="1.0" standalone="no"?><!DOCTYPE svg PUBLIC "-//W3C//DTD SVG 1.1//EN" "http://www.w3.org/Graphics/SVG/1.1/DTD/svg11.dtd"><svg t="1712024576741" class="icon" viewBox="0 0 4167 1024" version="1.1" xmlns="http://www.w3.org/2000/svg" p-id="12678" xmlns:xlink="http://www.w3.org/1999/xlink" width="813.8671875" height="200"><path d="M0 322.519685L563.789219 0l390.434888 322.519685-142.342823 144.203513-85.281647-69.155663-31.011509 110.400969H149.785584l29.460933-109.470624-118.774076 68.225318z m79.079346 242.509994h661.785584l-207.777104 458.970321-189.1702-23.568746 132.729255-290.267717H40.004846z m152.57662-195.372502h463.311932l-190.100545-155.05754zM1291.629316 39.0745h664.266505l-257.085403 959.185948H1034.543913z m270.420351 790.483344l66.364627-248.092066h-301.431859l-66.364628 248.092066zM1427.459721 207.777105l-58.301635 217.080557h301.431859l57.991521-217.080557zM2317.490006 281.274379l64.193822-206.536644h272.281042l17.056329-63.573592h181.107208l-17.366445 63.573592h269.179891l-40.31496 150.715929H2494.255603l-238.478498 777.148395-160.639613-7.752877 104.198668-334.924288-84.971533 34.422774-29.150817-145.133858 171.183525-67.915203 38.45427-124.046033-62.023016 73.497275-99.236826-74.42762 112.881889-133.969715z m160.019382 610.926711l-31.011508 110.400969h-138.311326l199.714112-744.276196h536.809207l-173.354331 647.520291h22.328286l40.935191-27.910358-33.492429 124.046033h-197.543307l37.83404-140.792247 24.809206-93.034524 62.023017-235.687463 29.150817-108.230163 11.474258-43.726227h-254.294367l-26.359782 98.306481-13.024833 48.067838-65.434282 244.370684zM3574.386432 23.258631l-46.827377 174.284676h51.479104l-27.290128 101.717747 363.144761-279.103574 251.813447 313.836463-120.634767 146.374319-27.910358-36.903695-80.009691 298.020594h-187.619624l49.308298-50.238644 31.011508-110.400969h-126.216838l-67.605088 252.123562h316.937614l54.890369-50.238644-57.061175 212.118716H3436.075106l145.133858-541.460932-29.460933 22.328285-33.802543-124.046032h-31.011509l-39.0745 142.963052 59.852211-15.505754-44.656572 167.462144-60.162326 15.505755-93.034524 342.677165h-210.878256l59.852211-53.339794 65.434282-243.440339-79.079346 19.847365 44.966687-167.462144 79.079346-19.847365 50.858873-190.100546H3256.208359l41.245305-152.886735h63.573592l46.517262-174.284676z m52.099334 393.225924h372.138098l-134.589945-184.208359z" p-id="12679" fill="#1296db"></path><path d="M2634.42762 424.237432h184.828588l-123.115687 194.132041 98.926711 4.961841-219.251363 379.270745 40.314961-289.027256-70.706239-37.523925 89.003029-251.813446z" p-id="12680" fill="#1296db"></path></svg>